<?xml version="1.0" encoding="UTF-8" standalone="no"?>
<!DOCTYPE svg PUBLIC "-//W3C//DTD SVG 1.1//EN" "http://www.w3.org/Graphics/SVG/1.1/DTD/svg11.dtd">
<svg width="100%" height="100%" viewBox="0 0 935 195" version="1.1" xmlns="http://www.w3.org/2000/svg" xmlns:xlink="http://www.w3.org/1999/xlink" xml:space="preserve" xmlns:serif="http://www.serif.com/" style="fill-rule:evenodd;clip-rule:evenodd;stroke-linejoin:round;stroke-miterlimit:2;">
    <g id="Artboard1" transform="matrix(1,0,0,1,-28.9105,-201.745)">
        <rect x="28.911" y="201.745" width="934.182" height="194.369" style="fill:none;"/>
        <g transform="matrix(11.4102,0,0,11.3723,-2506.67,-1074.76)">
            <path d="M230.583,118.409C231.199,118.409 231.751,118.545 232.239,118.817C232.727,119.089 233.109,119.469 233.385,119.957C233.661,120.445 233.799,121.009 233.799,121.649C233.799,122.289 233.661,122.855 233.385,123.347C233.109,123.839 232.727,124.221 232.239,124.493C231.751,124.765 231.199,124.901 230.583,124.901C230.111,124.901 229.679,124.809 229.287,124.625C228.895,124.441 228.571,124.173 228.315,123.821L228.315,124.829L227.211,124.829L227.211,115.925L228.363,115.925L228.363,119.429C228.619,119.093 228.939,118.839 229.323,118.667C229.707,118.495 230.127,118.409 230.583,118.409ZM230.487,123.893C230.895,123.893 231.261,123.799 231.585,123.611C231.909,123.423 232.165,123.159 232.353,122.819C232.541,122.479 232.635,122.089 232.635,121.649C232.635,121.209 232.541,120.819 232.353,120.479C232.165,120.139 231.909,119.877 231.585,119.693C231.261,119.509 230.895,119.417 230.487,119.417C230.087,119.417 229.723,119.509 229.395,119.693C229.067,119.877 228.811,120.139 228.627,120.479C228.443,120.819 228.351,121.209 228.351,121.649C228.351,122.089 228.443,122.479 228.627,122.819C228.811,123.159 229.067,123.423 229.395,123.611C229.723,123.799 230.087,123.893 230.487,123.893Z" style="fill:rgb(114,0,255);fill-rule:nonzero;"/>
            <path d="M241.395,118.469L241.395,124.829L240.291,124.829L240.291,123.821C240.035,124.173 239.711,124.441 239.319,124.625C238.927,124.809 238.495,124.901 238.023,124.901C237.407,124.901 236.855,124.765 236.367,124.493C235.879,124.221 235.497,123.839 235.221,123.347C234.945,122.855 234.807,122.289 234.807,121.649C234.807,121.009 234.945,120.445 235.221,119.957C235.497,119.469 235.879,119.089 236.367,118.817C236.855,118.545 237.407,118.409 238.023,118.409C238.479,118.409 238.899,118.495 239.283,118.667C239.667,118.839 239.987,119.093 240.243,119.429L240.243,118.469L241.395,118.469ZM238.119,123.893C238.519,123.893 238.883,123.799 239.211,123.611C239.539,123.423 239.795,123.159 239.979,122.819C240.163,122.479 240.255,122.089 240.255,121.649C240.255,121.209 240.163,120.819 239.979,120.479C239.795,120.139 239.539,119.877 239.211,119.693C238.883,119.509 238.519,119.417 238.119,119.417C237.711,119.417 237.345,119.509 237.021,119.693C236.697,119.877 236.441,120.139 236.253,120.479C236.065,120.819 235.971,121.209 235.971,121.649C235.971,122.089 236.065,122.479 236.253,122.819C236.441,123.159 236.697,123.423 237.021,123.611C237.345,123.799 237.711,123.893 238.119,123.893Z" style="fill:rgb(114,0,255);fill-rule:nonzero;"/>
            <path d="M246.951,118.409C247.567,118.409 248.119,118.545 248.607,118.817C249.095,119.089 249.477,119.469 249.753,119.957C250.029,120.445 250.167,121.009 250.167,121.649C250.167,122.289 250.029,122.855 249.753,123.347C249.477,123.839 249.095,124.221 248.607,124.493C248.119,124.765 247.567,124.901 246.951,124.901C246.479,124.901 246.047,124.809 245.655,124.625C245.263,124.441 244.939,124.173 244.683,123.821L244.683,124.829L243.579,124.829L243.579,115.925L244.731,115.925L244.731,119.429C244.987,119.093 245.307,118.839 245.691,118.667C246.075,118.495 246.495,118.409 246.951,118.409ZM246.855,123.893C247.263,123.893 247.629,123.799 247.953,123.611C248.277,123.423 248.533,123.159 248.721,122.819C248.909,122.479 249.003,122.089 249.003,121.649C249.003,121.209 248.909,120.819 248.721,120.479C248.533,120.139 248.277,119.877 247.953,119.693C247.629,119.509 247.263,119.417 246.855,119.417C246.455,119.417 246.091,119.509 245.763,119.693C245.435,119.877 245.179,120.139 244.995,120.479C244.811,120.819 244.719,121.209 244.719,121.649C244.719,122.089 244.811,122.479 244.995,122.819C245.179,123.159 245.435,123.423 245.763,123.611C246.091,123.799 246.455,123.893 246.855,123.893Z" style="fill:rgb(114,0,255);fill-rule:nonzero;"/>
            <path d="M254.631,123.893C255.391,123.893 256.003,123.637 256.467,123.125L257.091,123.869C256.811,124.205 256.457,124.461 256.029,124.637C255.601,124.813 255.123,124.901 254.595,124.901C253.923,124.901 253.327,124.763 252.807,124.487C252.287,124.211 251.885,123.825 251.601,123.329C251.317,122.833 251.175,122.273 251.175,121.649C251.175,121.033 251.313,120.477 251.589,119.981C251.865,119.485 252.245,119.099 252.729,118.823C253.213,118.547 253.759,118.409 254.367,118.409C254.943,118.409 255.467,118.539 255.939,118.799C256.411,119.059 256.787,119.425 257.067,119.897C257.347,120.369 257.491,120.913 257.499,121.529L252.447,122.513C252.607,122.953 252.877,123.293 253.257,123.533C253.637,123.773 254.095,123.893 254.631,123.893ZM254.367,119.381C253.967,119.381 253.609,119.473 253.293,119.657C252.977,119.841 252.731,120.099 252.555,120.431C252.379,120.763 252.291,121.149 252.291,121.589L252.291,121.709L256.359,120.941C256.255,120.477 256.023,120.101 255.663,119.813C255.303,119.525 254.871,119.381 254.367,119.381Z" style="fill:rgb(114,0,255);fill-rule:nonzero;"/>
            <path d="M261.039,124.901C260.423,124.901 259.947,124.731 259.611,124.391C259.275,124.051 259.107,123.573 259.107,122.957L259.107,115.925L260.259,115.925L260.259,122.861C260.259,123.205 260.341,123.469 260.505,123.653C260.669,123.837 260.915,123.929 261.243,123.929C261.443,123.929 261.631,123.889 261.807,123.809L261.867,124.757C261.603,124.853 261.327,124.901 261.039,124.901Z" style="fill:rgb(114,0,255);fill-rule:nonzero;"/>
            <path d="M266.199,118.517C266.983,118.517 267.603,118.745 268.059,119.201C268.515,119.657 268.743,120.313 268.743,121.169L268.743,124.829L268.143,124.829L268.143,121.217C268.143,120.513 267.965,119.977 267.609,119.609C267.253,119.241 266.755,119.057 266.115,119.057C265.379,119.057 264.799,119.277 264.375,119.717C263.951,120.157 263.739,120.749 263.739,121.493L263.739,124.829L263.139,124.829L263.139,115.925L263.739,115.925L263.739,119.873C263.955,119.441 264.275,119.107 264.699,118.871C265.123,118.635 265.623,118.517 266.199,118.517Z" style="fill:rgb(114,0,255);fill-rule:nonzero;"/>
            <path d="M273.795,124.337C274.203,124.337 274.581,124.263 274.929,124.115C275.277,123.967 275.567,123.749 275.799,123.461L276.147,123.857C275.875,124.193 275.535,124.447 275.127,124.619C274.719,124.791 274.271,124.877 273.783,124.877C273.159,124.877 272.601,124.741 272.109,124.469C271.617,124.197 271.233,123.821 270.957,123.341C270.681,122.861 270.543,122.313 270.543,121.697C270.543,121.081 270.673,120.533 270.933,120.053C271.193,119.573 271.555,119.197 272.019,118.925C272.483,118.653 273.007,118.517 273.591,118.517C274.135,118.517 274.625,118.643 275.061,118.895C275.497,119.147 275.845,119.495 276.105,119.939C276.365,120.383 276.507,120.881 276.531,121.433L271.239,122.465C271.391,123.041 271.695,123.497 272.151,123.833C272.607,124.169 273.155,124.337 273.795,124.337ZM273.591,119.045C273.119,119.045 272.695,119.155 272.319,119.375C271.943,119.595 271.651,119.903 271.443,120.299C271.235,120.695 271.131,121.145 271.131,121.649C271.131,121.737 271.139,121.861 271.155,122.021L275.931,121.085C275.875,120.709 275.743,120.365 275.535,120.053C275.327,119.741 275.055,119.495 274.719,119.315C274.383,119.135 274.007,119.045 273.591,119.045Z" style="fill:rgb(114,0,255);fill-rule:nonzero;"/>
            <path d="M283.959,118.565L283.959,124.829L283.371,124.829L283.371,123.353C283.123,123.841 282.775,124.217 282.327,124.481C281.879,124.745 281.371,124.877 280.803,124.877C280.219,124.877 279.691,124.741 279.219,124.469C278.747,124.197 278.377,123.821 278.109,123.341C277.841,122.861 277.707,122.313 277.707,121.697C277.707,121.081 277.841,120.531 278.109,120.047C278.377,119.563 278.747,119.187 279.219,118.919C279.691,118.651 280.219,118.517 280.803,118.517C281.363,118.517 281.865,118.649 282.309,118.913C282.753,119.177 283.103,119.545 283.359,120.017L283.359,118.565L283.959,118.565ZM280.839,124.337C281.319,124.337 281.749,124.225 282.129,124.001C282.509,123.777 282.809,123.465 283.029,123.065C283.249,122.665 283.359,122.209 283.359,121.697C283.359,121.185 283.249,120.729 283.029,120.329C282.809,119.929 282.509,119.617 282.129,119.393C281.749,119.169 281.319,119.057 280.839,119.057C280.359,119.057 279.929,119.169 279.549,119.393C279.169,119.617 278.869,119.929 278.649,120.329C278.429,120.729 278.319,121.185 278.319,121.697C278.319,122.209 278.429,122.665 278.649,123.065C278.869,123.465 279.169,123.777 279.549,124.001C279.929,124.225 280.359,124.337 280.839,124.337Z" style="fill:rgb(114,0,255);fill-rule:nonzero;"/>
            <path d="M288.123,124.877C287.595,124.877 287.191,124.727 286.911,124.427C286.631,124.127 286.491,123.713 286.491,123.185L286.491,115.925L287.091,115.925L287.091,123.113C287.091,123.521 287.183,123.831 287.367,124.043C287.551,124.255 287.827,124.361 288.195,124.361C288.403,124.361 288.603,124.321 288.795,124.241L288.843,124.745C288.619,124.833 288.379,124.877 288.123,124.877Z" style="fill:rgb(114,0,255);fill-rule:nonzero;"/>
            <path d="M292.983,124.433C292.831,124.577 292.641,124.687 292.413,124.763C292.185,124.839 291.947,124.877 291.699,124.877C291.155,124.877 290.735,124.727 290.439,124.427C290.143,124.127 289.995,123.709 289.995,123.173L289.995,117.197L290.595,117.197L290.595,118.565L292.587,118.565L292.587,119.081L290.595,119.081L290.595,123.113C290.595,123.521 290.693,123.831 290.889,124.043C291.085,124.255 291.375,124.361 291.759,124.361C292.151,124.361 292.475,124.245 292.731,124.013L292.983,124.433Z" style="fill:rgb(114,0,255);fill-rule:nonzero;"/>
            <path d="M297.711,118.517C298.495,118.517 299.115,118.745 299.571,119.201C300.027,119.657 300.255,120.313 300.255,121.169L300.255,124.829L299.655,124.829L299.655,121.217C299.655,120.513 299.477,119.977 299.121,119.609C298.765,119.241 298.267,119.057 297.627,119.057C296.891,119.057 296.311,119.277 295.887,119.717C295.463,120.157 295.251,120.749 295.251,121.493L295.251,124.829L294.651,124.829L294.651,115.925L295.251,115.925L295.251,119.873C295.467,119.441 295.787,119.107 296.211,118.871C296.635,118.635 297.135,118.517 297.711,118.517Z" style="fill:rgb(114,0,255);fill-rule:nonzero;"/>
        </g>
    </g>
</svg>
